<svg height="37.069843mm" viewBox="0 0 246.69137 131.34984" width="69.621788mm" xmlns="http://www.w3.org/2000/svg"><g transform="translate(0 -921.01239)"><g style="fill:none;stroke:#3c3c3c;stroke-width:3;stroke-linecap:round;stroke-linejoin:round;stroke-miterlimit:10"><path d="m2.1495596 942.60159c-.2659419 12.48901 2.000736 24.94017.8519726 37.43645-.2016245 8.13136-.3977558 16.27182.1129179 24.40376.058436 12.6911-.6671906 24.3964.1145194 37.0762 3.2538451 5.7445 10.0856435 7.5674 16.0364825 8.2186 4.532454-.076 9.07571-.7269 13.621027-.042 6.80078.7623 13.939159 1.4393 20.782977.7081 8.330727-.4558 13.765355-.1043 22.085025-.01 1.155681-.1256 5.572421-.4065 7.182582-.4457"/><path d="m82.14802 1049.9622c14.28815-.627 28.58782-.2202 42.87744-.3994 14.06729-.7752 28.2336.9773 42.25207-.5146 13.33395-1.0531 26.76563.1694 40.13417-.5311 7.18548-.7075 14.4118.1503 21.61423-.4527 6.81513-.42 11.81876-.1448 13.13293-6.0369.32602-4.8023.54781-9.6145 1.2189-14.3875"/><path d="m243.37776 1027.4139c.46355-7.013.6778-14.0245 1.43602-21.0197.71112-10.61166-.41551-21.2155-.70333-31.82494-.68558-13.5174-1.13889-27.04335-.92619-40.57842 1.61592-7.34285-4.43273-12.83365-11.59763-10.97386-8.16121.5411-16.34557 1.04024-24.49694 1.46463-5.94139.9113-11.98225-.10388-17.96283.35638-6.55032-.44688-13.14715-1.64498-19.65036-.0885-10.66111.58917-21.3243-1.01984-32.00365-.40699-8.55747.0726-17.10126.90545-25.63913-.0257-1.6707-.0389-3.34252-.0251-5.01253.0354"/><path d="m106.6314 924.35221c-8.3097-.0571-16.646832-.0391-24.886927-1.21898-11.57422-.85318-23.075537 1.35494-34.646843 1.32337-8.121076.19582-16.248339-.0129-24.359092-.41488-6.014033-.31489-12.015459-1.23669-18.0385284-1.14053-3.8036023 1.82512-2.9473348 6.86039-3.0023673 10.36353.08752 2.95258.2239444 5.90354.3854786 8.85293"/></g><g fill="#fff" stroke-width=".357143" transform="matrix(.93749998 0 0 .93749998 0 921.01239)"><path d="m38.928571 135.84621c-2.464646-.30247-7.326287-.49918-12.15677-.49189-6.924469.0105-8.447048-.0886-10.892857-.70888-3.924788-.99532-6.8081626-2.49612-8.9146583-4.64008l-1.7857143-1.81748-.2330528-26.32608c-.1401725-15.834161-.0865225-30.951964.1346174-37.933229.307587-9.71035.2733348-13.124575-.2096011-20.892857-.7340131-11.80699-1.4295141-31.785675-1.212964-34.8431208.0981274-1.3854482.4231666-2.7356732.7952678-3.3035714.6034404-.9209665.7560905-.9601294 3.7132363-.9526435 1.6961586.00429 5.735711.2561102 8.976782.5595921 3.699528.34641 11.8082.6253408 21.785714.7494084 14.202886.1766088 17.051154.1128001 26.785715-.6000708 11.08226-.8115641 20.022735-.8226593 26.785714-.0332414 4.617075.5389344 40.29281 1.1449715 49.82143.8463352 4.91071-.1539068 12.94643-.1542915 17.85714-.0008536 4.91072.1534366 12.30357.1796975 16.42857.058358 8.18051-.2406354 10.55835-.2471883 31.78572-.087595 13.97257.10505 22.22965-.2295924 37.9211-1.5368647 3.63306-.3026744 5.01812-.2923467 6.07143.045272 1.80048.57711 3.44119 1.8327941 4.38038 3.3524358.74211 1.2007679.76584 1.651665.90712 17.2397887.0798 8.803725.39069 21.310343.6909 27.792486 1.45507 31.418407 1.45744 31.537114.80503 40.357142-.33418 4.517858-.76563 10.866069-.95878 14.107139-.19315 3.24108-.51279 7.5-.71029 9.46429-.19751 1.96429-.50717 5.68537-.68813 8.26908-.46226 6.59982-1.13123 7.64237-5.51563 8.59579-2.50429.54457-26.51454 1.12367-54.68885 1.31903-9.625.0667-19.02678.28966-20.89285.49538-2.13143.23498-16.93664.37935-39.82143.38832-20.03572.008-40.687503.17377-45.89286.36871-17.069264.63923-46.416829.73112-51.071429.1599z"/><path d="m38.928571 135.8847c-2.258928-.26054-7.737684-.48582-12.175013-.50063-6.838162-.0228-8.498456-.13612-10.892857-.7433-3.907028-.99076-6.7927853-2.49436-8.8964153-4.63542l-1.7857143-1.81748-.2331911-26.68322c-.1402956-16.053518-.0881288-30.965332.1309517-37.432389.2587214-7.637225.2497701-12.755272-.0309192-17.678572-.943582-16.550463-1.1358395-21.413395-1.2133069-30.689202-.1025885-12.2837821-.2868618-11.7796007 4.3011273-11.7681087 1.7142218.00429 5.7685528.2552834 9.0096238.5577546 3.758451.3507554 11.778644.617824 22.142857.7373466 14.258547.164433 17.468854.09608 26.195697-.5577546 11.55671-.8658542 18.907075-.9271288 25.411446-.2118366 6.313525.6943045 39.741063 1.3419003 51.250003.9928725 5.00893-.1519042 13.125-.1488393 18.03571.00681 4.91072.15565 12.30357.1790823 16.42857.052072 9.87579-.3040799 15.25571-.3007085 28.57143.017905 9.32316.2230807 13.10168.1446432 23.92857-.4967286 7.07143-.4189026 14.69572-.9332028 16.94287-1.1428893s4.76514-.2793648 5.59553-.1548407c1.82002.2729305 4.04215 1.8077035 5.10337 3.5247841.76249 1.2337343.78092 1.5767729.92759 17.2662917.0823 8.804152.39343 21.311121.69139 27.793264 1.46619 31.897989 1.46086 31.626482.79782 40.590639-.33919 4.585861-.77 10.989722-.95734 14.230792s-.5053 7.41964-.70657 9.28571c-.20128 1.86607-.51294 5.5068-.69259 8.09051-.45884 6.59935-1.12769 7.64217-5.51322 8.59575-2.48008.53926-25.70408 1.10515-54.3317 1.32387-9.625.0735-19.10715.29796-21.07143.49871-2.16822.22159-17.88419.37133-40 .38111-20.03572.009-40.687503.17499-45.89286.36917-16.610311.61962-46.410575.73458-51.071429.19701z"/><path d="m38.75 135.88118c-2.357143-.25894-7.835899-.48277-12.175013-.49742-6.659737-.0225-8.329579-.13826-10.714286-.74299-4.036957-1.02371-6.8707081-2.52204-8.9721135-4.74397l-1.7975134-1.9006-.1793902-27.48024c-.0993319-15.216349-.0228779-31.703971.1713137-36.944531.2453578-6.621354.2313367-11.717175-.0466772-16.964286-.2185598-4.125-.5579433-10.473214-.7541857-14.107143s-.3962536-11.111554-.4444695-16.616945c-.1093687-12.4879519-.2998518-11.9581873 4.295568-11.9466767 1.7142218.0042938 5.7685528.2497883 9.0096238.5455433 3.496327.3190477 12.283603.6244567 21.607143.7509741 14.087529.1911631 16.878896.1301099 26.964286-.5897671 11.618871-.829334 19.961871-.8365639 27.321428-.023676 5.027082.555258 39.364196 1.1347509 49.285716.831774 4.91071-.1499603 12.94643-.1444717 17.85714.012197 4.91072.1566685 12.30357.1773754 16.42857.046015 8.40407-.2676264 11.45095-.2771441 31.78572-.09929 14.03617.1227648 22.67091-.2247018 37.85714-1.5233918 5.3604-.4584087 6.77188-.2200906 8.84674 1.4937144 2.49168 2.0580951 2.41542 1.4970683 2.58335 19.0044398.0833 8.686513.39339 21.177589.68904 27.757945 1.39873 31.131175 1.42316 32.09015.9737 38.214286-.23787 3.241071-.66821 9.669648-.95632 14.285718s-.6888 10-.89043 11.96428c-.20163 1.96429-.51271 5.6061-.69129 8.09292-.45987 6.40389-1.15681 7.46848-5.5088 8.41477-2.44892.53248-25.0115 1.08555-54.3317 1.3318-9.625.0808-19.10715.31303-21.07143.516-2.20037.22736-17.63472.37392-40.20451.38177-20.1482.007-40.719625.16506-45.714289.35122-16.227015.60483-46.41205.71417-51.224061.18556z"/></g></g></svg>