<svg height="235.82773" viewBox="0 0 1253.1047 235.82773" width="1253.1047" xmlns="http://www.w3.org/2000/svg"><path d="m1320.6667 552.68822c-24.2028-3.89041-45.4876-14.97611-63.9353-33.29929l-12.0255-11.94438 5.2469-1.09015c6.8511-1.42345 9.9075-4.34425 10.8746-10.39224.7173-4.48556 1.4464-5.19459 8.2353-8.00844 5.8863-2.43972 7.5744-2.70921 8.0491-1.28497 1.4057 4.21693 11.4741 13.25988 17.9188 16.09381 5.575 2.45148 9.3703 3.06596 18.9694 3.07125 10.3769.005 12.9266-.47134 18.8505-3.52696 3.7678-1.94346 9.0178-6.06556 11.6667-9.16021l4.8162-5.62665v8.24 8.24h9.428 9.4278l-.4278-45c-.4198-44.13497-.4892-45.13552-3.6139-52.05024-6.6337-14.6806-19.5555-21.61643-40.2726-21.61643-20.3241 0-35.5576 7.20895-43.959 20.80286-3.4567 5.59292-2.94 6.33158 6.7261 9.6172l7.2038 2.44868 4.0894-5.36156c6.0104-7.88016 14.2038-11.62939 25.6498-11.73708 11.9753-.11267 18.035 2.6358 22.4605 10.18721 3.7968 6.47875 4.5036 16.70716 1.3363 19.33586-1.0735.89084-8.7235 2.49586-17.0001 3.56671-39.6518 5.13027-51.3425 10.92207-55.8616 27.67484-.8109 3.00591-1.1451 8.25432-.7427 11.66315l.7316 6.19785-7.5878 3.28812c-7.4555 3.23076-7.6433 3.24476-10.7677.80213-5.2059-4.07001-11.7825-3.25228-16.8226 2.0917l-4.3173 4.57768-1.6404-3.57768c-11.2152-24.45924-13.9852-53.64411-7.513-79.15815 9.6913-38.20434 37.0192-68.4476 74.4449-82.38681 32.4792-12.09687 73.3852-7.61617 102.8956 11.27083l7.8675 5.0352-4.0298 1.69433c-4.519 1.90015-8.3717 6.65391-8.3717 10.32983 0 4.37688 3.7893 9.89297 7.9919 11.63372 4.1149 1.70449 4.1173 1.71144 3.7294 11.1878-.3782 9.24304-.4805 9.49289-4.0546 9.90414l-3.6667.4219v58.63902 58.63903l9-.39426 9-.39425.3473-58.23877.3472-58.23877-3.0138-.4279c-2.7702-.39326-3.0458-1.21021-3.4058-10.0965-.3724-9.18786-.2264-9.74402 2.9358-11.18475 1.8301-.83387 4.2753-3.51369 5.434-5.95517l2.1064-4.43904 4.397 4.95712c10.6147 11.96654 20.1188 29.88405 24.1788 45.5823 18.0703 69.87096-27.4558 138.30904-98.4234 147.9569-12.9823 1.76491-21.2642 1.63191-34.9035-.56052zm-948.23149-46.02125c-11.09019-2.31142-18.76252-7.73874-23.56127-16.66698-2.35671-4.38474-2.86721-7.58626-2.87025-18-.003-11.41968.35716-13.2805 3.66166-18.90184 8.66967-14.74811 26.0037-21.65583 42.70443-17.01799 21.16704 5.87813 21.85892 34.33927.97007 39.90483-2.57024.6848-9.31802 1.41833-14.99503 1.63005l-10.32185.38495-.012 3.76922c-.008 2.43095 1.42636 5.20708 4.03812 7.81884 3.82761 3.8276 4.51964 4.01968 12.6236 3.50366 6.53684-.41624 9.32545-1.25192 11.73681-3.51727l3.16281-2.97132 3.54692 3.54692c5.83742 5.83741 4.06816 11.69004-4.5211 14.95568-5.20271 1.97807-19.9432 2.85768-26.16344 1.56125zm4.6254-39.98212c7.7292-.046 12.7886-12.30452 6.80742-16.49389-6.2253-4.36039-15.85225 3.91211-15.86304 13.6312-.004 4.00531.31818 4.40224 2.99502 3.68488 1.65-.44219 4.37726-.81217 6.0606-.82219zm172.73107 40.00402c-17.13483-3.62944-26.92683-15.72972-27.06648-33.44688-.0939-11.91603 3.18401-20.61152 10.54465-27.97216 9.83996-9.83996 22.72021-12.83814 36.97145-8.60598 9.5089 2.82384 13.75871 6.49735 13.75871 11.89292 0 4.81611-2.54017 7.77939-8.66911 10.11308-3.41473 1.30022-4.19196 1.17938-5.33089-.82882-7.11859-12.55162-19.91159-11.19228-23.99241 2.54933-2.38564 8.03333-2.46518 10.67803-.58483 19.44579 1.95965 9.13757 6.23827 13.49717 13.24645 13.49717 6.03323 0 12.52343-2.79411 14.43835-6.21587 1.14109-2.03902 1.59841-2.00665 5.72857.4055 4.79859 2.80253 5.89742 5.37284 4.56554 10.67948-1.64563 6.55669-20.38367 11.288-33.61 8.48644zm93.33333-.0428c-12.50192-2.55164-22.49278-10.82791-25.60309-21.20916-2.63639-8.79948-1.89715-22.57706 1.61523-30.10363 7.70382-16.50836 25.95361-24.15859 44.49537-18.65228 7.85069 2.3314 14.9544 9.36797 15.17544 15.03201.71065 18.20995-5.01195 23.65431-27.22456 25.90086l-13.73877 1.3895.5571 3.7959c.30643 2.08773 2.0732 5.31196 3.92619 7.16494 2.80471 2.80471 4.62287 3.36823 10.85391 3.36408 5.19926-.004 8.85804-.84214 11.98176-2.74654 5.14269-3.13526 7.11928-2.75788 10.20264 1.94792 2.97704 4.54353 1.48893 8.31885-4.46316 11.32301-5.83686 2.946-20.03491 4.37376-27.77806 2.79339zm8.39439-41.55523c5.69856-2.76439 7.58049-11.70235 3.12159-14.82548-3.41951-2.39512-8.33091-1.47713-11.78771 2.20323-2.6944 2.86866-5.86621 13.4073-4.45877 14.81473.98578.9858 9.50768-.43776 13.12489-2.19248zm176.05183 41.0184c-8.2844-3.02515-11.57121-8.7328-11.57121-20.09375 0-12.58117 5.91794-16.90392 27.3119-19.94993 9.25578-1.3178 10.7428-1.89725 11.0963-4.32396.71756-4.92596-3.2228-12.22728-7.1277-13.20735-4.8043-1.2058-12.15429 2.44344-15.0155 7.45512-1.68579 2.95283-2.94692 3.77431-4.93167 3.21244-9.59123-2.71524-12.87595-11.33048-6.55385-17.1896 5.15044-4.77328 12.7843-6.6838 26.55385-6.64562 10.18472.0283 12.8572.51918 17.66655 3.24545 9.47396 5.37049 10.99417 10.25908 11.03193 35.47557.0175 11.68515.54601 23.45895 1.17449 26.16402 1.35159 5.81745.4782 6.41502-9.37596 6.41502-5.24781 0-7.29545-.67722-9.88882-3.2706l-3.2706-3.2706-6.33546 3.21023c-8.33445 4.22313-14.52885 5.05056-20.76425 2.7736zm22.76212-13.42664c2.40692-.69184 3.0036-1.83301 3.0182-5.77247.0107-2.70057.38-6.26014.82219-7.91014.67473-2.51778.27513-3-2.48592-3-5.09211 0-11.60559 2.68836-13.04928 5.38592-3.25354 6.0793 1.02465 14.25574 6.65392 12.7169 1.12249-.30684 3.39089-.94594 5.04089-1.42021zm229.86235 13.94348c-13.7884-2.85232-22.9497-11.97695-25.6812-25.57848-4.2291-21.05803 6.8863-40.58572 25.6662-45.09096 13.1234-3.14827 28.5768.94033 33.8902 8.96653 3.6045 5.44487 3.4909 17.67066-.2103 22.64152-4.6909 6.30019-10.1703 8.56172-24.6324 10.16672l-13.45 1.49268.7761 4.05462c.4269 2.23004 2.3837 5.4677 4.3483 7.19482 3.1224 2.7449 4.6238 3.07326 11.926 2.60828 5.391-.34326 9.2454-1.33877 10.8676-2.80688 3.4144-3.08997 6.4108-2.85806 8.8949.6884 4.0841 5.83088 1.8211 11.1717-5.9924 14.14239-5.2713 2.00411-19.9723 2.85064-26.403 1.52036zm10.1165-42.13373c3.4014-2.1232 5.0131-7.02 3.8439-11.67863-2.6093-10.39607-18.1561-.34593-18.1561 11.73687 0 3.33804.2326 3.44644 5.6667 2.64105 3.1167-.46192 7.0071-1.6766 8.6455-2.69929zm73.5584 42.22368c-8.659-1.55864-14.0752-4.69379-15.0894-8.73434-1.1371-4.53054 1.6225-10.04418 6.3062-12.59993 3.5869-1.95729 3.8836-1.89291 6.6666 1.44708 3.7622 4.51501 7.7117 6.50448 12.9127 6.50448 5.9186 0 9.3333-2.20111 9.3333-6.01617 0-4.01007-3.5172-6.39624-13.7584-9.3341-28.8926-8.2883-23.6962-40.19056 6.9952-42.9459 13.3655-1.19991 26.7632 5.04681 26.7632 12.47836 0 3.38706-5.7328 9.81781-8.7523 9.81781-.9329 0-2.6453.36419-3.8053.80932-1.3184.50591-2.109.0932-2.109-1.10092 0-1.05063-1.4316-3.25512-3.1813-4.89887-4.7654-4.47684-12.9429-3.55577-14.7676 1.66336-1.7752 5.07755 1.3097 7.54052 15.2667 12.18863 13.6458 4.54445 17.3488 8.50964 17.3488 18.57693 0 8.88963-3.738 14.79634-12 18.96194-6.8295 3.44338-19.0184 4.82233-28.1294 3.18232zm-953.53726-1.56936-3.66667-1.36891-.0581-26.88888c-.0319-14.78889-.57839-29.58659-1.21432-32.88376-1.39222-7.21827-.59308-7.95659 8.64237-7.98472 7.14569-.0217 12.63001 2.67629 12.63001 6.21344 0 1.64443.9118 1.3946 4.33334-1.18729 5.10836-3.85478 11.90489-6.3799 17.17198-6.3799 5.64296 0 14.0587 3.80268 16.43206 7.42488l2.09591 3.19876 5.97726-4.56253c10.12478-7.72843 22.26398-7.91732 30.73656-.47828 6.34168 5.56807 7.64835 11.5856 6.57578 30.28321-.54798 9.55274-.3131 18.97366.61426 24.63684.82584 5.04326 1.2592 9.4119.96302 9.70808-.29619.29619-3.59966.90107-7.34103 1.34418-7.8276.92706-14.38747-1.1969-15.61193-5.05482-.44448-1.40042-.61443-12.71217-.37767-25.13722.37435-19.64559.14177-22.88036-1.78381-24.81038-3.06451-3.07156-8.1273-2.77382-13.10511.77068l-4.19915 2.99007.31423 25.50993.31423 25.50994-5.8883.43501c-6.8209.50392-15.78761-1.80887-16.1098-4.1552-.12187-.88723-.27183-12.31176-.33333-25.38784-.11-23.39179-.16314-23.8164-3.29767-26.3642-3.54288-2.87973-6.53471-2.45051-12.57343 1.80388l-3.75926 2.64848.31266 25.50993.31268 25.50994-7.22006.2578c-3.97104.14178-8.87008-.35822-10.88675-1.11112zm236.70656.24161c-1.62806-.70007-3.27433-2.64883-3.65837-4.33057-.38404-1.68175-.852-16.67762-1.03989-33.32416-.38683-34.27132-1.28854-31.6782 11.02836-31.71536 7.4147-.0224 11.96334 2.88256 11.96334 7.6402v3.50717l3.66667-3.44684c9.23107-8.67765 19.07956-11.45409 23.46001-6.61375 2.76822 3.05884 2.80712 7.1996.11654 12.40263-1.5593 3.01533-2.65984 3.78749-4.33334 3.04032-1.23377-.55084-4.71129-1.25336-7.72782-1.56117-4.91259-.50128-6.05984-.012-11 4.68701l-5.51539 5.24667.0268 13.20644c.0148 7.26354.5872 17.084 1.27212 21.82321.68492 4.73923 1.02027 8.84183.7452 9.11689-1.21529 1.21528-16.33092 1.47086-19.00424.32131zm273.39027.35008c-1.59674-.31083-3.49041-1.27911-4.20816-2.15175-.74473-.90545-1.49-15.6111-1.73589-34.25329l-.43091-32.66667 7.7292-.40256c7.06312-.36786 8.03278-.0712 11.25191 3.44218l3.52269 3.84474 5.45402-3.84434c7.83137-5.52007 18.24494-6.44394 26.66884-2.36599 10.31279 4.99232 11.29424 7.80588 11.39264 32.65931.0464 11.73333.58391 24.33333 1.19435 28 .61042 3.66666.87046 6.92085.57788 7.23152-.29259.31066-4.63186.61066-9.64282.66666-13.8402.15467-13.53724.76444-13.53724-27.24706 0-20.99804-.27812-24.0325-2.44828-26.71252-3.30543-4.08204-9.74731-3.78958-15.64707.71038l-4.57386 3.48867.87856 25.26451.87856 25.2645-7.21062-.18157c-3.96584-.0999-8.51705-.43589-10.1138-.74672zm197.27641-.35008c-1.62807-.70007-3.26472-2.64883-3.637-4.33057-.3723-1.68175-.84024-16.70163-1.0399-33.37751-.29062-24.27528-.009-30.45539 1.41272-31 .97664-.37412 5.02664-.68021 9-.68021 8.02031 0 12.55762 2.98505 12.55762 8.26156 0 2.77252.23041 2.70956 4.33333-1.18407 5.24054-4.9732 11.76787-8.41083 15.97044-8.41083 4.6547 0 9.02956 3.6515 9.02956 7.53655 0 4.98677-4.14241 11.39292-6.63638 10.26301-1.11666-.50589-4.43028-1.16164-7.36362-1.4572-4.60565-.46406-6.10649.1268-11 4.3307l-5.66667 4.86808.0973 14.89609c.0536 8.19287.57813 18.19611 1.16576 22.22944.58762 4.03333.89122 7.53593.67466 7.78355-1.02793 1.17536-16.28608 1.39449-18.89786.27141zm81.72201-.81687c-1.15238-1.15237-2.10692-2.80237-2.12118-3.66666-.0143-.86428-.1845-15.47239-.37827-32.46244l-.35233-30.89102 3.87829-.77565c7.0395-1.40791 12.5398-.81048 15.6384 1.69861 3.0152 2.44155 3.0517 2.8161 2.7587 28.33334-.1633 14.22248.2446 28.6769.9066 32.12093 1.4262 7.42005.9971 7.73813-10.4393 7.73813-5.3092 0-8.464-.66828-9.89091-2.09524zm301.38521-18.39112c-6.2371-3.77542-8.7033-7.84072-8.7665-14.4509-.1275-13.32266 6.8903-17.53514 36.0126-21.61687 7.7329-1.08383 15.6829-2.58768 17.6667-3.34189l3.6068-1.37131v9.72948c0 12.51091-2.8907 20.95425-9.0147 26.33125-6.9967 6.14314-12.2652 7.87412-23.9425 7.86644-8.5319-.005-11.298-.56482-15.5624-3.1462zm-302.24967-60.74441c-8.46067-8.46065-2.71779-22.76922 9.13867-22.76922 6.004 0 11.6455 4.27234 13.0545 9.88636 3.2838 13.08376-12.7088 22.36726-22.19317 12.88286z" stroke-width="1.33333" transform="translate(-204.85677 -318.63617)"/></svg>